REM DIRINDEX 1\2\4,1\2\5,1\3\6,1\3\7,1\3\8
REM DIRNAME folder01,folder02,folder03,folder04,folder05,folder06,folder07,folder08
TITLE ""
FILE "LEVEL1-018-midashigo.mp3" MP3
  TRACK 01 AUDIO
    TITLE "0:"
    INDEX 01 00:00:00
  TRACK 02 AUDIO
    TITLE "6:cjc092_0716"
    INDEX 01 00:00:09
  TRACK 03 AUDIO
    TITLE "0:"
    INDEX 01 00:02:69
  TRACK 04 AUDIO
    TITLE "7:cjc092_0717"
    INDEX 01 00:03:47
  TRACK 05 AUDIO
    TITLE "8:cjc092_0718"
    INDEX 01 00:05:05
  TRACK 06 AUDIO
    TITLE "0:"
    INDEX 01 00:08:05
  TRACK 07 AUDIO
    TITLE "7:cjc092_0719"
    INDEX 01 00:08:36
  TRACK 08 AUDIO
    TITLE "8:cjc092_0720"
    INDEX 01 00:09:53
  TRACK 09 AUDIO
    TITLE "0:"
    INDEX 01 00:11:21
  TRACK 10 AUDIO
    TITLE "7:cjc092_0721"
    INDEX 01 00:11:50
  TRACK 11 AUDIO
    TITLE "8:cjc092_0722"
    INDEX 01 00:13:00
  TRACK 12 AUDIO
    TITLE "0:"
    INDEX 01 00:14:62
  TRACK 13 AUDIO
    TITLE "7:cjc092_0723"
    INDEX 01 00:15:19
  TRACK 14 AUDIO
    TITLE "8:cjc092_0724"
    INDEX 01 00:16:44
  TRACK 15 AUDIO
    TITLE "0:"
    INDEX 01 00:18:03
  TRACK 16 AUDIO
    TITLE "7:cjc092_0725"
    INDEX 01 00:18:31
  TRACK 17 AUDIO
    TITLE "8:cjc092_0726"
    INDEX 01 00:19:48
  TRACK 18 AUDIO
    TITLE "0:"
    INDEX 01 00:24:27
  TRACK 19 AUDIO
    TITLE "7:cjc092_0727"
    INDEX 01 00:24:55
  TRACK 20 AUDIO
    TITLE "8:cjc092_0728"
    INDEX 01 00:25:72
  TRACK 21 AUDIO
    TITLE "0:"
    INDEX 01 00:28:68
  TRACK 22 AUDIO
    TITLE "7:cjc092_0729"
    INDEX 01 00:29:23
  TRACK 23 AUDIO
    TITLE "8:cjc092_0730"
    INDEX 01 00:30:36
  TRACK 24 AUDIO
    TITLE "0:"
    INDEX 01 00:31:71
  TRACK 25 AUDIO
    TITLE "7:cjc092_0731"
    INDEX 01 00:32:29
  TRACK 26 AUDIO
    TITLE "8:cjc092_0732"
    INDEX 01 00:33:36
  TRACK 27 AUDIO
    TITLE "0:"
    INDEX 01 00:34:43
  TRACK 28 AUDIO
    TITLE "7:cjc092_0733"
    INDEX 01 00:34:71
  TRACK 29 AUDIO
    TITLE "8:cjc092_0734"
    INDEX 01 00:36:11
  TRACK 30 AUDIO
    TITLE "0:"
    INDEX 01 00:38:30
  TRACK 31 AUDIO
    TITLE "7:cjc092_0735"
    INDEX 01 00:38:61
  TRACK 32 AUDIO
    TITLE "8:cjc092_0736"
    INDEX 01 00:40:07
  TRACK 33 AUDIO
    TITLE "0:"
    INDEX 01 00:41:51
  TRACK 34 AUDIO
    TITLE "7:cjc092_0737"
    INDEX 01 00:42:06
  TRACK 35 AUDIO
    TITLE "8:cjc092_0738"
    INDEX 01 00:43:23
  TRACK 36 AUDIO
    TITLE "0:"
    INDEX 01 00:45:20
  TRACK 37 AUDIO
    TITLE "7:cjc092_0739"
    INDEX 01 00:45:51
  TRACK 38 AUDIO
    TITLE "8:cjc092_0740"
    INDEX 01 00:46:72
  TRACK 39 AUDIO
    TITLE "0:"
    INDEX 01 00:48:57
  TRACK 40 AUDIO
    TITLE "7:cjc092_0741"
    INDEX 01 00:49:12
  TRACK 41 AUDIO
    TITLE "8:cjc092_0742"
    INDEX 01 00:50:46
  TRACK 42 AUDIO
    TITLE "0:"
    INDEX 01 00:52:08
  TRACK 43 AUDIO
    TITLE "7:cjc092_0743"
    INDEX 01 00:52:39
  TRACK 44 AUDIO
    TITLE "8:cjc092_0744"
    INDEX 01 00:53:64
  TRACK 45 AUDIO
    TITLE "0:"
    INDEX 01 00:55:48
  TRACK 46 AUDIO
    TITLE "7:cjc092_0745"
    INDEX 01 00:56:02
  TRACK 47 AUDIO
    TITLE "8:cjc092_0746"
    INDEX 01 00:57:23
  TRACK 48 AUDIO
    TITLE "0:"
    INDEX 01 00:59:24
  TRACK 49 AUDIO
    TITLE "7:cjc092_0747"
    INDEX 01 00:59:49
  TRACK 50 AUDIO
    TITLE "8:cjc092_0748"
    INDEX 01 01:00:72
  TRACK 51 AUDIO
    TITLE "0:"
    INDEX 01 01:03:53
  TRACK 52 AUDIO
    TITLE "7:cjc092_0749"
    INDEX 01 01:04:07
  TRACK 53 AUDIO
    TITLE "8:cjc092_0750"
    INDEX 01 01:05:40
  TRACK 54 AUDIO
    TITLE "0:"
    INDEX 01 01:07:35
  TRACK 55 AUDIO
    TITLE "7:cjc092_0751"
    INDEX 01 01:07:66
  TRACK 56 AUDIO
    TITLE "8:cjc092_0752"
    INDEX 01 01:09:12
  TRACK 57 AUDIO
    TITLE "0:"
    INDEX 01 01:10:47
  TRACK 58 AUDIO
    TITLE "7:cjc092_0753"
    INDEX 01 01:11:02
  TRACK 59 AUDIO
    TITLE "8:cjc092_0754"
    INDEX 01 01:12:23
  TRACK 60 AUDIO
    TITLE "0:"
    INDEX 01 01:13:32
